<svg xmlns="http://www.w3.org/2000/svg" width="538" height="70" viewBox="0 0 538 70">
  <defs>
    <style>
      .cls-1 {
        fill: #fff;
        stroke: #000;
        stroke-width: 1px;
        fill-rule: evenodd;
      }
    </style>
  </defs>
  <path id="NeedlessEscape" class="cls-1" d="M65.049,44.626H59.375V81.233L54.9,71.013,42.49,44.626H34.663V89.3h5.674V52.488l3.76,8.955L57.119,89.3h7.93V44.626Zm37.512,19.089a13.618,13.618,0,0,0-2.871-5.024,12.767,12.767,0,0,0-4.665-3.2,16.743,16.743,0,0,0-6.357-1.128,14.418,14.418,0,0,0-11.5,5.315,17.2,17.2,0,0,0-3.042,5.674,22.17,22.17,0,0,0-1.042,6.853,26.363,26.363,0,0,0,.974,7.468,14.277,14.277,0,0,0,3.008,5.571,12.978,12.978,0,0,0,5.212,3.469,21.563,21.563,0,0,0,7.588,1.2,45.845,45.845,0,0,0,6.34-.427,41.464,41.464,0,0,0,5.485-1.111V83.489q-1.094.307-2.375,0.564t-2.683.461q-1.4.205-2.905,0.325t-3.008.12q-5.537,0-8.477-2.82T79.3,74.055h24.1q0.069-.752.1-1.607t0.034-2.119A21.077,21.077,0,0,0,102.561,63.716ZM79.3,69.475a15.126,15.126,0,0,1,.889-4.2,10.948,10.948,0,0,1,1.88-3.281,8.106,8.106,0,0,1,2.769-2.119,8.285,8.285,0,0,1,3.555-.752,9.58,9.58,0,0,1,3.965.769,7.889,7.889,0,0,1,2.854,2.136A8.82,8.82,0,0,1,96.9,65.288a12.975,12.975,0,0,1,.444,4.187H79.3Zm61.745-5.759a13.62,13.62,0,0,0-2.871-5.024,12.766,12.766,0,0,0-4.665-3.2,16.746,16.746,0,0,0-6.358-1.128,14.418,14.418,0,0,0-11.5,5.315,17.2,17.2,0,0,0-3.042,5.674,22.179,22.179,0,0,0-1.043,6.853,26.34,26.34,0,0,0,.975,7.468,14.27,14.27,0,0,0,3.007,5.571,12.985,12.985,0,0,0,5.213,3.469,21.561,21.561,0,0,0,7.588,1.2,45.85,45.85,0,0,0,6.34-.427,41.474,41.474,0,0,0,5.486-1.111V83.489q-1.095.307-2.376,0.564t-2.683.461q-1.4.205-2.905,0.325t-3.008.12q-5.537,0-8.476-2.82t-2.94-8.083h24.1q0.068-.752.1-1.607t0.034-2.119A21.048,21.048,0,0,0,141.047,63.716Zm-23.259,5.759a15.119,15.119,0,0,1,.889-4.2,10.935,10.935,0,0,1,1.88-3.281,8.1,8.1,0,0,1,2.768-2.119,8.287,8.287,0,0,1,3.555-.752,9.582,9.582,0,0,1,3.965.769,7.893,7.893,0,0,1,2.854,2.136,8.826,8.826,0,0,1,1.692,3.264,12.992,12.992,0,0,1,.444,4.187H117.788Zm32.744,10.356a16.642,16.642,0,0,0,2.239,5.383,10.195,10.195,0,0,0,8.9,4.7,12.007,12.007,0,0,0,6.289-1.743,17.985,17.985,0,0,0,5.4-5.366l0.2,6.494H178.9V41H172.92V55.427a20.916,20.916,0,0,0-3.128-.649,25.21,25.21,0,0,0-3.23-.205,18.725,18.725,0,0,0-6.887,1.213,14.4,14.4,0,0,0-5.3,3.555,15.989,15.989,0,0,0-3.4,5.742,23.36,23.36,0,0,0-1.2,7.776A30.018,30.018,0,0,0,150.532,79.831Zm8.05-17.192a9.47,9.47,0,0,1,7.57-3.145,17.755,17.755,0,0,1,3.521.359A14.487,14.487,0,0,1,172.92,60.9V76.824a28.84,28.84,0,0,1-5.281,5.982,7.773,7.773,0,0,1-4.768,2.017,5.731,5.731,0,0,1-5.178-3.059q-1.829-3.059-1.829-9.28Q155.864,65.784,158.582,62.639Zm43.117,21.7H190.42V89.3h27.515V84.343h-10.22V41H191.548v4.888H201.7V84.343Zm54.807-20.627a13.62,13.62,0,0,0-2.871-5.024,12.766,12.766,0,0,0-4.665-3.2,16.746,16.746,0,0,0-6.358-1.128,14.418,14.418,0,0,0-11.5,5.315,17.2,17.2,0,0,0-3.042,5.674,22.179,22.179,0,0,0-1.043,6.853A26.378,26.378,0,0,0,228,79.678a14.285,14.285,0,0,0,3.008,5.571,12.985,12.985,0,0,0,5.213,3.469,21.561,21.561,0,0,0,7.588,1.2,45.85,45.85,0,0,0,6.34-.427,41.474,41.474,0,0,0,5.486-1.111V83.489q-1.095.307-2.376,0.564t-2.683.461q-1.4.205-2.905,0.325t-3.008.12q-5.536,0-8.476-2.82t-2.94-8.083h24.1q0.068-.752.1-1.607t0.034-2.119A21.048,21.048,0,0,0,256.506,63.716Zm-23.259,5.759a15.119,15.119,0,0,1,.889-4.2,10.935,10.935,0,0,1,1.88-3.281,8.1,8.1,0,0,1,2.768-2.119,8.287,8.287,0,0,1,3.555-.752,9.582,9.582,0,0,1,3.965.769,7.893,7.893,0,0,1,2.854,2.136,8.826,8.826,0,0,1,1.692,3.264,12.992,12.992,0,0,1,.444,4.187H233.247Zm60.344,7.041a7.007,7.007,0,0,0-1.862-2.7,13.277,13.277,0,0,0-3.384-2.17,36.41,36.41,0,0,0-5.127-1.863q-2.8-.82-4.546-1.521a13.1,13.1,0,0,1-2.717-1.4,4,4,0,0,1-1.333-1.453,3.827,3.827,0,0,1-.359-1.675,3.735,3.735,0,0,1,.41-1.726,3.666,3.666,0,0,1,1.35-1.4,7.772,7.772,0,0,1,2.461-.94,17.411,17.411,0,0,1,3.743-.342,34.645,34.645,0,0,1,4.357.325,49.144,49.144,0,0,1,5.315,1.008v-5.3a46.373,46.373,0,0,0-5.127-.769q-2.46-.222-4.477-0.222a20.59,20.59,0,0,0-6.836.974,12.656,12.656,0,0,0-4.341,2.444,8.555,8.555,0,0,0-2.273,3.179,8.726,8.726,0,0,0-.666,3.145A8.24,8.24,0,0,0,269,67.9a8.877,8.877,0,0,0,2.256,2.8,14.356,14.356,0,0,0,3.4,2.068,34.732,34.732,0,0,0,4.289,1.555q3.111,0.923,4.905,1.641a11.285,11.285,0,0,1,2.649,1.384,3.777,3.777,0,0,1,1.179,1.4A4.053,4.053,0,0,1,288,80.412a3.635,3.635,0,0,1-2.051,3.315,13.264,13.264,0,0,1-6.323,1.162,39.93,39.93,0,0,1-5.913-.444,47.538,47.538,0,0,1-5.982-1.3v5.469a43.2,43.2,0,0,0,5.725.991,61.513,61.513,0,0,0,6.409.308,23.238,23.238,0,0,0,3.281-.239,19.7,19.7,0,0,0,3.265-.752,16.342,16.342,0,0,0,2.99-1.3,10.406,10.406,0,0,0,2.461-1.9,8.518,8.518,0,0,0,1.675-2.546,8.17,8.17,0,0,0,.615-3.247A9.688,9.688,0,0,0,293.591,76.516Zm38.487,0a7,7,0,0,0-1.863-2.7,13.241,13.241,0,0,0-3.384-2.17,36.41,36.41,0,0,0-5.127-1.863q-2.8-.82-4.546-1.521a13.1,13.1,0,0,1-2.717-1.4,4,4,0,0,1-1.333-1.453,3.841,3.841,0,0,1-.359-1.675,3.748,3.748,0,0,1,.41-1.726,3.673,3.673,0,0,1,1.35-1.4,7.782,7.782,0,0,1,2.461-.94,17.411,17.411,0,0,1,3.743-.342,34.673,34.673,0,0,1,4.358.325,49.189,49.189,0,0,1,5.315,1.008v-5.3a46.444,46.444,0,0,0-5.127-.769q-2.462-.222-4.478-0.222a20.59,20.59,0,0,0-6.836.974,12.656,12.656,0,0,0-4.341,2.444,8.541,8.541,0,0,0-2.272,3.179,8.707,8.707,0,0,0-.667,3.145,8.24,8.24,0,0,0,.82,3.794,8.877,8.877,0,0,0,2.256,2.8,14.377,14.377,0,0,0,3.4,2.068,34.749,34.749,0,0,0,4.29,1.555q3.109,0.923,4.9,1.641a11.244,11.244,0,0,1,2.649,1.384,3.771,3.771,0,0,1,1.18,1.4,4.069,4.069,0,0,1,.324,1.658,3.633,3.633,0,0,1-2.051,3.315,13.264,13.264,0,0,1-6.323,1.162,39.94,39.94,0,0,1-5.913-.444,47.561,47.561,0,0,1-5.981-1.3v5.469a43.167,43.167,0,0,0,5.725.991,61.479,61.479,0,0,0,6.408.308,23.262,23.262,0,0,0,3.282-.239,19.716,19.716,0,0,0,3.264-.752,16.382,16.382,0,0,0,2.991-1.3,10.426,10.426,0,0,0,2.461-1.9,8.515,8.515,0,0,0,1.674-2.546,8.153,8.153,0,0,0,.616-3.247A9.688,9.688,0,0,0,332.078,76.516ZM370.752,84.1H351.44V68.723H370V63.6H351.44V49.753h19.312V44.626h-25.4V89.3h25.4V84.1Zm38.3-7.588a7,7,0,0,0-1.863-2.7,13.252,13.252,0,0,0-3.383-2.17,36.41,36.41,0,0,0-5.127-1.863q-2.8-.82-4.546-1.521a13.1,13.1,0,0,1-2.717-1.4,4,4,0,0,1-1.333-1.453,3.827,3.827,0,0,1-.359-1.675,3.735,3.735,0,0,1,.41-1.726,3.666,3.666,0,0,1,1.35-1.4,7.772,7.772,0,0,1,2.461-.94,17.411,17.411,0,0,1,3.743-.342,34.645,34.645,0,0,1,4.357.325,49.144,49.144,0,0,1,5.315,1.008v-5.3a46.373,46.373,0,0,0-5.127-.769q-2.46-.222-4.477-0.222a20.59,20.59,0,0,0-6.836.974,12.656,12.656,0,0,0-4.341,2.444,8.555,8.555,0,0,0-2.273,3.179,8.726,8.726,0,0,0-.666,3.145,8.24,8.24,0,0,0,.82,3.794,8.877,8.877,0,0,0,2.256,2.8,14.356,14.356,0,0,0,3.4,2.068,34.732,34.732,0,0,0,4.289,1.555q3.111,0.923,4.905,1.641a11.285,11.285,0,0,1,2.649,1.384,3.777,3.777,0,0,1,1.179,1.4,4.053,4.053,0,0,1,.325,1.658,3.635,3.635,0,0,1-2.051,3.315,13.264,13.264,0,0,1-6.323,1.162,39.93,39.93,0,0,1-5.913-.444,47.538,47.538,0,0,1-5.982-1.3v5.469a43.167,43.167,0,0,0,5.725.991,61.513,61.513,0,0,0,6.409.308,23.238,23.238,0,0,0,3.281-.239,19.7,19.7,0,0,0,3.265-.752,16.342,16.342,0,0,0,2.99-1.3,10.406,10.406,0,0,0,2.461-1.9A8.518,8.518,0,0,0,409,83.181a8.17,8.17,0,0,0,.615-3.247A9.688,9.688,0,0,0,409.05,76.516ZM447.588,82.5a19.46,19.46,0,0,1-4.392,1.641,20.021,20.021,0,0,1-4.7.547q-5.367,0-8.391-3.093t-3.025-9.314a15.026,15.026,0,0,1,.889-5.332,11.884,11.884,0,0,1,2.427-4,10.534,10.534,0,0,1,3.571-2.512,10.86,10.86,0,0,1,4.324-.872,21.239,21.239,0,0,1,4.768.53,18.9,18.9,0,0,1,4.529,1.692V56.111a20.715,20.715,0,0,0-4.443-1.23,31.3,31.3,0,0,0-4.991-.376,18.576,18.576,0,0,0-7.007,1.282,15.7,15.7,0,0,0-5.468,3.64,16.44,16.44,0,0,0-3.555,5.674,20.575,20.575,0,0,0-1.265,7.383q0,8.477,4.392,12.886t12.527,4.409a29.26,29.26,0,0,0,5.042-.427,25.7,25.7,0,0,0,4.768-1.316V82.5Zm39.2,6.8V65.647a12.429,12.429,0,0,0-.923-4.99,9.174,9.174,0,0,0-2.649-3.52A11.38,11.38,0,0,0,479,55.051a21.229,21.229,0,0,0-5.605-.684,30.378,30.378,0,0,0-3.384.188q-1.676.188-3.213,0.5t-2.922.7q-1.385.393-2.513,0.8v5.366a40.269,40.269,0,0,1,5.828-1.846,25.446,25.446,0,0,1,5.725-.649q4,0,5.947,1.829a6.364,6.364,0,0,1,1.949,4.871v3.008H473.7q-7.52,0-11.365,2.922a9.588,9.588,0,0,0-3.845,8.083A11.432,11.432,0,0,0,459.124,84a8.006,8.006,0,0,0,1.982,3.093,9.406,9.406,0,0,0,3.435,2.068,14.87,14.87,0,0,0,5.024.752,15.317,15.317,0,0,0,6.067-1.23,18.589,18.589,0,0,0,5.691-4L481.46,89.3h5.332Zm-5.981-9.536a22.959,22.959,0,0,1-5.589,3.948,11.264,11.264,0,0,1-4.7,1.248,7.623,7.623,0,0,1-2.666-.41,4.784,4.784,0,0,1-1.777-1.111,4.21,4.21,0,0,1-.991-1.606,5.857,5.857,0,0,1-.308-1.9,6.426,6.426,0,0,1,.5-2.581,5.068,5.068,0,0,1,1.521-1.965,7.256,7.256,0,0,1,2.632-1.265,14.5,14.5,0,0,1,3.828-.444h7.554v6.084Zm45.664-15.3a16.445,16.445,0,0,0-2.256-5.4,10.719,10.719,0,0,0-3.726-3.469,10.478,10.478,0,0,0-5.161-1.23,14.143,14.143,0,0,0-6.289,1.418,15.312,15.312,0,0,0-5.469,4.939L503.2,54.983h-5.3v48.33h5.948V88.957a24.786,24.786,0,0,0,3.3.581,31.211,31.211,0,0,0,3.264.171,19.214,19.214,0,0,0,6.665-1.128,14.5,14.5,0,0,0,5.332-3.384,15.674,15.674,0,0,0,3.538-5.674,22.746,22.746,0,0,0,1.282-8A30.57,30.57,0,0,0,526.475,64.468Zm-8.067,17.158a9.322,9.322,0,0,1-7.554,3.264A16.713,16.713,0,0,1,507.3,84.5a19.866,19.866,0,0,1-3.452-1.077V66.775A34.832,34.832,0,0,1,506.8,63.34a17.968,17.968,0,0,1,2.632-2.222,9.293,9.293,0,0,1,2.41-1.2,7.727,7.727,0,0,1,2.29-.359,5.52,5.52,0,0,1,3.178.906,6.859,6.859,0,0,1,2.188,2.512,12.983,12.983,0,0,1,1.248,3.862,29.059,29.059,0,0,1,.393,4.956Q521.143,78.362,518.408,81.626ZM564.4,63.716a13.62,13.62,0,0,0-2.871-5.024,12.769,12.769,0,0,0-4.666-3.2,16.737,16.737,0,0,0-6.357-1.128A14.419,14.419,0,0,0,539,59.682a17.2,17.2,0,0,0-3.042,5.674,22.179,22.179,0,0,0-1.042,6.853,26.378,26.378,0,0,0,.974,7.468,14.285,14.285,0,0,0,3.008,5.571,12.975,12.975,0,0,0,5.212,3.469,21.565,21.565,0,0,0,7.588,1.2,45.854,45.854,0,0,0,6.341-.427,41.458,41.458,0,0,0,5.485-1.111V83.489q-1.093.307-2.375,0.564t-2.683.461q-1.4.205-2.9,0.325t-3.008.12q-5.538,0-8.477-2.82t-2.939-8.083h24.1q0.069-.752.1-1.607t0.034-2.119A21.077,21.077,0,0,0,564.4,63.716Zm-23.259,5.759a15.119,15.119,0,0,1,.888-4.2,10.957,10.957,0,0,1,1.88-3.281,8.117,8.117,0,0,1,2.769-2.119,8.285,8.285,0,0,1,3.554-.752,9.578,9.578,0,0,1,3.965.769,7.884,7.884,0,0,1,2.854,2.136,8.811,8.811,0,0,1,1.692,3.264,12.991,12.991,0,0,1,.445,4.187H541.138Z" transform="translate(-31 -37)"/>
</svg>
